#!OML:ASF H:\Dans Jumps\Project 1\Capture day 1\Session 1\subject.ASF
:FULLY-SPECIFIED
:DEGREES
199
root 0.606936 17.611 -14.2401 5.75612 -0.015617 -1.2084
lowerback -3.64973 -0.489349 -0.00779866
upperback 3.19612 -0.731498 1.58132
thorax 5.3782 -0.396099 1.58356
lowerneck -12.5817 0.492506 -2.0274
upperneck 34.7129 1.03703 0.710359
head 13.8745 0.276995 0.801046
rclavicle -1.11319e-014 1.55052e-014
rhumerus -22.1447 -10.681 -84.4174
rradius 24.5078
rwrist 32.5754
rhand -19.5621 -26.5739
rfingers 7.12502
rthumb 6.76251 -56.4459
lclavicle -1.11319e-014 1.55052e-014
lhumerus -19.0714 -8.67654 91.5453
lradius 19.1634
lwrist 1.99139
lhand -25.3533 -4.23952
lfingers 7.12502
lthumb 1.17034 25.737
rfemur -11.7807 -3.12085 19.0979
rtibia 19.3873
rfoot -12.3326 -3.77197
rtoes 11.2922
lfemur -9.6058 5.74378 -17.644
ltibia 16.1522
lfoot -9.77067 5.73683
ltoes 0.422037
200
root 0.607479 17.6102 -14.2459 5.7692 -0.0303005 -1.21324
lowerback -3.59349 -0.485807 0.000812525
upperback 3.20496 -0.727046 1.58458
thorax 5.35512 -0.393607 1.58281
lowerneck -12.5932 0.491507 -2.01467
upperneck 34.6509 1.03517 0.700405
head 13.8494 0.277114 0.794003
rclavicle 7.30534e-015 -6.75868e-015
rhumerus -22.1176 -10.6807 -84.4107
rradius 24.5078
rwrist 32.5751
rhand -19.5771 -26.5522
rfingers 7.12502
rthumb 6.74806 -56.4247
lclavicle 7.30534e-015 -6.75868e-015
lhumerus -19.0774 -8.7055 91.5453
lradius 19.203
lwrist 2.04284
lhand -25.3667 -4.254
lfingers 7.12502
lthumb 1.15736 25.7226
rfemur -11.8439 -3.0974 19.1029
rtibia 19.4346
rfoot -12.3289 -3.78009
rtoes 11.2636
lfemur -9.67933 5.7485 -17.6437
ltibia 16.2276
lfoot -9.78195 5.74803
ltoes 0.422713
201
root 0.608 17.6094 -14.2523 5.78626 -0.047094 -1.21735
lowerback -3.53423 -0.482353 0.00786388
upperback 3.21506 -0.722609 1.58803
thorax 5.33164 -0.39119 1.58315
lowerneck -12.6054 0.492149 -1.99499
upperneck 34.579 1.03644 0.682652
head 13.8202 0.278546 0.783004
rclavicle 1.26725e-014 -4.37326e-015
rhumerus -22.0841 -10.6779 -84.4059
rradius 24.508
rwrist 32.5716
rhand -19.592 -26.53
rfingers 7.12502
rthumb 6.73368 -56.403
lclavicle 1.26725e-014 -4.37326e-015
lhumerus -19.0825 -8.73789 91.5447
lradius 19.2504
lwrist 2.10502
lhand -25.3759 -4.25544
lfingers 7.12502
lthumb 1.14854 25.7212
rfemur -11.9178 -3.07524 19.1075
rtibia 19.4885
rfoot -12.3264 -3.78537
rtoes 11.2289
lfemur -9.76377 5.75373 -17.6452
ltibia 16.3123
lfoot -9.795 5.76207
ltoes 0.418933
202
root 0.608434 17.6085 -14.2593 5.8062 -0.0645374 -1.22111
lowerback -3.46991 -0.479208 0.0133918
upperback 3.2263 -0.718453 1.59152
thorax 5.30651 -0.388972 1.58437
lowerneck -12.617 0.493257 -1.98311
upperneck 34.5 1.03847 0.670724
head 13.7876 0.280128 0.775773
rclavicle 9.74045e-015 -2.50469e-014
rhumerus -22.0447 -10.673 -84.4034
rradius 24.5076
rwrist 32.5648
rhand -19.6124 -26.5062
rfingers 7.12502
rthumb 6.71397 -56.3798
lclavicle 9.74045e-015 -2.50469e-014
lhumerus -19.0878 -8.77118 91.5423
lradius 19.3054
lwrist 2.17564
lhand -25.3846 -4.26189
lfingers 7.12502
lthumb 1.14009 25.7148
rfemur -12.0013 -3.05123 19.1126
rtibia 19.5496
rfoot -12.3253 -3.79148
rtoes 11.1978
lfemur -9.85822 5.7579 -17.6471
ltibia 16.4066
lfoot -9.81077 5.77864
ltoes 0.412842
